<?xml version="1.0" encoding="utf-8"?><svg xmlns="http://www.w3.org/2000/svg" xmlns:xlink="http://www.w3.org/1999/xlink"><symbol fill="none" viewBox="0 0 10 11" id="dzen" xmlns="http://www.w3.org/2000/svg"><path d="M5.274 10.6C5.64 8.08 7.423 5.698 9.8 5.698v-.596C7.423 5.102 5.64 2.766 5.274.2H4.68C4.36 2.766 2.531 5.102.2 5.102v.596c2.331 0 4.16 2.382 4.48 4.902h.594Z" fill="#000"/></symbol><symbol fill="none" viewBox="0 0 12 12" id="fb" xmlns="http://www.w3.org/2000/svg"><g clip-path="url(#ba)"><path d="M12 6A6 6 0 1 0 0 6a6 6 0 0 0 5.063 5.927V7.734H3.538V6h1.523V4.678c0-1.503.896-2.334 2.267-2.334.656 0 1.343.117 1.343.117v1.477h-.757c-.745 0-.978.462-.978.937V6h1.665l-.266 1.734H6.937v4.193A6 6 0 0 0 12 6Z" fill="#000"/></g><defs><clipPath id="ba"><path fill="#fff" d="M0 0h12v12H0z"/></clipPath></defs></symbol><symbol fill="none" viewBox="0 0 12 12" id="instagram" xmlns="http://www.w3.org/2000/svg"><g clip-path="url(#ca)" fill="#000"><path d="M5.988 1.08c1.599 0 1.787.008 2.419.036.584.027.9.124 1.112.207.28.11.48.238.689.447.209.209.34.409.447.689.08.211.18.528.206 1.112.029.632.036.82.036 2.42 0 1.598-.007 1.786-.036 2.418-.026.585-.123.9-.206 1.112-.11.28-.238.48-.447.69-.21.208-.409.34-.69.446-.21.08-.527.18-1.111.207-.632.028-.82.035-2.42.035-1.599 0-1.786-.007-2.418-.035-.585-.026-.9-.124-1.112-.207-.28-.11-.48-.238-.69-.447a1.811 1.811 0 0 1-.446-.689c-.081-.211-.18-.527-.207-1.112-.028-.632-.036-.82-.036-2.419 0-1.6.008-1.787.036-2.419.026-.584.124-.9.207-1.112.11-.28.237-.48.447-.69.209-.208.408-.339.689-.446.211-.08.527-.18 1.112-.207.632-.03.82-.035 2.419-.035Zm0-1.078c-1.626 0-1.83.007-2.47.036-.636.028-1.07.13-1.451.278a2.918 2.918 0 0 0-1.06.691 2.97 2.97 0 0 0-.691 1.06c-.148.38-.25.815-.278 1.454-.029.637-.036.841-.036 2.467 0 1.625.007 1.83.036 2.469.028.636.13 1.071.278 1.454.152.394.358.727.691 1.06a2.97 2.97 0 0 0 1.06.691c.38.147.815.25 1.454.278.64.029.841.036 2.47.036 1.627 0 1.829-.007 2.468-.036.637-.028 1.072-.13 1.454-.278a2.918 2.918 0 0 0 1.06-.691c.333-.333.537-.668.691-1.06.148-.38.25-.815.279-1.454.028-.64.035-.842.035-2.47 0-1.627-.007-1.829-.035-2.468-.029-.637-.131-1.072-.278-1.454a2.918 2.918 0 0 0-.692-1.06 2.969 2.969 0 0 0-1.06-.692C9.533.166 9.098.063 8.46.035 7.817.01 7.613.002 5.988.002Z"/><path d="M5.988 2.913a3.075 3.075 0 1 0 0 6.15 3.075 3.075 0 0 0 0-6.15Zm0 5.07a1.996 1.996 0 1 1 0-3.99 1.996 1.996 0 0 1 0 3.99ZM9.184 3.51a.718.718 0 1 0 0-1.436.718.718 0 0 0 0 1.435Z"/></g><defs><clipPath id="ca"><path fill="#fff" d="M0 0h12v12H0z"/></clipPath></defs></symbol><symbol fill="none" viewBox="0 0 12 12" id="telegram" xmlns="http://www.w3.org/2000/svg"><rect width="12" height="12" rx="3" fill="#000"/><path d="M10.332 1.859 1.467 5.277c-.605.243-.601.58-.11.731l2.275.71 5.266-3.322c.25-.152.477-.07.29.096L4.92 7.342 4.764 9.69c.23 0 .332-.106.46-.23L6.33 8.384l2.3 1.698c.424.234.728.114.834-.392l1.51-7.114c.154-.62-.237-.9-.642-.717Z" fill="#fff"/></symbol><symbol fill="none" viewBox="0 0 12 12" id="vk" xmlns="http://www.w3.org/2000/svg"><rect width="12" height="12" rx="3" fill="#000"/><path d="M11.304 8.496c-.03-.048-.209-.438-1.073-1.24-.905-.84-.783-.704.306-2.156.664-.884.93-1.424.846-1.655-.079-.22-.567-.162-.567-.162l-1.622.01s-.12-.017-.21.036c-.088.053-.144.175-.144.175s-.257.684-.6 1.266c-.723 1.228-1.012 1.293-1.13 1.216-.275-.177-.206-.714-.206-1.094 0-1.19.18-1.687-.352-1.815-.177-.043-.306-.07-.758-.076-.58-.006-1.07.002-1.347.138-.185.09-.328.292-.24.304.107.014.35.065.479.24.166.227.16.736.16.736s.096 1.4-.223 1.575c-.22.12-.52-.124-1.165-1.239-.33-.57-.58-1.201-.58-1.201s-.048-.118-.133-.18c-.104-.077-.25-.101-.25-.101l-1.543.01s-.232.006-.317.107c-.075.09-.006.274-.006.274s1.208 2.827 2.576 4.252c1.255 1.306 2.68 1.22 2.68 1.22h.645s.195-.021.294-.129c.092-.098.089-.283.089-.283s-.013-.866.389-.994c.396-.125.905.837 1.445 1.208.407.28.717.219.717.219l1.443-.02s.755-.047.397-.64Z" fill="#fff"/></symbol><symbol fill="none" viewBox="0 0 12 12" id="youtube" xmlns="http://www.w3.org/2000/svg"><path d="M11.748 3.03C12 3.99 12 5.994 12 5.994s0 2.004-.252 2.964c-.132.528-.54.948-1.056 1.092-.936.264-4.692.264-4.692.264s-3.756 0-4.692-.264A1.518 1.518 0 0 1 .252 8.958C0 7.998 0 5.994 0 5.994S0 3.99.252 3.03c.132-.528.54-.948 1.056-1.092C2.244 1.686 6 1.686 6 1.686s3.756 0 4.692.252c.516.144.924.564 1.056 1.092ZM4.872 8.058l3-1.872-3-1.872v3.744Z" fill="#000"/></symbol></svg>