<?xml version="1.0" encoding="utf-8"?><svg xmlns="http://www.w3.org/2000/svg" xmlns:xlink="http://www.w3.org/1999/xlink"><symbol viewBox="0 0 22 24" id="basket" xmlns="http://www.w3.org/2000/svg"><g clip-path="url(#aa)"><path d="M10.363 18.443a2.046 2.046 0 0 0-2.045 2.042 2.046 2.046 0 0 0 4.09 0 2.046 2.046 0 0 0-2.045-2.042Zm6.134 0a2.046 2.046 0 0 0-2.045 2.042 2.046 2.046 0 0 0 4.089 0 2.046 2.046 0 0 0-2.044-2.042Zm3.978-8.199L7.413 6.891a.614.614 0 0 0-.75.73L8.67 16.4h-.786L5.482 5.895a.613.613 0 0 0-.474-.464l-4.27-.882A.614.614 0 0 0 .489 5.75l3.885.802L6.797 17.15a.613.613 0 0 0 .598.477h12.07a.615.615 0 0 0 .607-.53l.858-6.175a.613.613 0 0 0-.455-.678Zm-8.14 3.91a.613.613 0 0 1-1.227 0v-2.696a.613.613 0 0 1 1.227 0v2.696Zm2.625 0a.613.613 0 0 1-1.227 0v-1.88a.613.613 0 0 1 1.227 0v1.88Zm2.625 0a.613.613 0 0 1-1.227 0v-1.226a.613.613 0 0 1 1.227 0v1.226Z"/></g><path fill-rule="evenodd" clip-rule="evenodd" d="M16.268 4.568a2.996 2.996 0 0 0-1.693-.523c-.627 0-1.21.193-1.693.523-.28-.843-.492-1.752-.492-2.383C12.39.98 13.37 0 14.575 0s2.185.98 2.185 2.185c0 .631-.212 1.54-.492 2.383Zm-4.722 2.274.024.006v-.011l-.024.005Zm4.972 1.217c-1.333-.33-2.766-.681-4.129-1.013a2.185 2.185 0 1 1 4.129 1.013Zm4.436 1.103c-.866-.217-2.155-.538-3.618-.9a2.995 2.995 0 0 0 .243-1.425c.87.18 1.762.45 2.308.765.596.344.969.928 1.067 1.56ZM9.869 6.439c-.36-.086-.706-.167-1.03-.243a2.19 2.19 0 0 1-.376-2.667 2.188 2.188 0 0 1 3.147-.7c.098.738.338 1.599.61 2.353a3.01 3.01 0 0 0-.449.774c-.628.113-1.305.278-1.902.483Zm10.124.075a3.43 3.43 0 0 1-.217.114c-.696-.295-1.587-.526-2.397-.672a3.01 3.01 0 0 0-.449-.774c.262-.727.494-1.553.599-2.273.095-.067.189-.128.278-.18a2.188 2.188 0 0 1 2.986.8 2.188 2.188 0 0 1-.8 2.985Z"/><defs><clipPath id="aa"><path transform="translate(0 3.064)" d="M0 0h20.936v20.936H0z"/></clipPath></defs></symbol><symbol viewBox="0 0 344.96 344.96" id="check" xmlns="http://www.w3.org/2000/svg"><g data-name="Слой 2"><path class="bcls-1" d="m321.85 86.24-40-23.11-23.1-40H212.5L172.48 0l-40 23.11H86.24l-23.11 40-40 23.1v46.21L0 172.48l23.11 40v46.21l40 23.11 23.11 40h46.21l40 23.1 40-23.11h46.21l23.11-40 40-23.11V212.5l23.11-40-23.11-40V86.24ZM156.91 243.07a16.79 16.79 0 0 1-23.34 0l-50.45-50.44a16.19 16.19 0 0 1 0-22.89l13.35-13.35a16.19 16.19 0 0 1 22.89 0l25.87 25.87 80.34-80.35a16.19 16.19 0 0 1 22.89 0l13.35 13.35a16.19 16.19 0 0 1 0 22.89Z" data-name="Capa 1"/></g></symbol><symbol viewBox="0 0 24 24" id="copyright" xmlns="http://www.w3.org/2000/svg"><path d="M12 22c5.421 0 10-4.579 10-10S17.421 2 12 2 2 6.579 2 12s4.579 10 10 10Zm0-18c4.337 0 8 3.663 8 8s-3.663 8-8 8-8-3.663-8-8 3.663-8 8-8Z"/><path d="M12 17c.901 0 2.581-.168 3.707-1.292l-1.414-1.416C13.85 14.735 12.992 15 12 15c-1.626 0-3-1.374-3-3s1.374-3 3-3c.993 0 1.851.265 2.293.707l1.414-1.414C14.582 7.168 12.901 7 12 7c-2.757 0-5 2.243-5 5s2.243 5 5 5Z"/></symbol><symbol viewBox="0 0 10 11" id="dzen" xmlns="http://www.w3.org/2000/svg"><path d="M5.274 10.6C5.64 8.08 7.423 5.698 9.8 5.698v-.596C7.423 5.102 5.64 2.766 5.274.2H4.68C4.36 2.766 2.531 5.102.2 5.102v.596c2.331 0 4.16 2.382 4.48 4.902h.594Z"/></symbol><symbol viewBox="0 0 12 12" id="fb" xmlns="http://www.w3.org/2000/svg"><g clip-path="url(#ea)"><path d="M12 6A6 6 0 1 0 0 6a6 6 0 0 0 5.063 5.927V7.734H3.538V6h1.523V4.678c0-1.503.896-2.334 2.267-2.334.656 0 1.343.117 1.343.117v1.477h-.757c-.745 0-.978.462-.978.937V6h1.665l-.266 1.734H6.937v4.193A6 6 0 0 0 12 6Z"/></g><defs><clipPath id="ea"><path d="M0 0h12v12H0z"/></clipPath></defs></symbol><symbol viewBox="0 0 12 12" id="instagram" xmlns="http://www.w3.org/2000/svg"><g clip-path="url(#fa)"><path d="M5.988 1.08c1.599 0 1.787.008 2.419.036.584.027.9.124 1.112.207.28.11.48.238.689.447.209.209.34.409.447.689.08.211.18.528.206 1.112.029.632.036.82.036 2.42 0 1.598-.007 1.786-.036 2.418-.026.585-.123.9-.206 1.112-.11.28-.238.48-.447.69-.21.208-.409.34-.69.446-.21.08-.527.18-1.111.207-.632.028-.82.035-2.42.035-1.599 0-1.786-.007-2.418-.035-.585-.026-.9-.124-1.112-.207-.28-.11-.48-.238-.69-.447a1.811 1.811 0 0 1-.446-.689c-.081-.211-.18-.527-.207-1.112-.028-.632-.036-.82-.036-2.419 0-1.6.008-1.787.036-2.419.026-.584.124-.9.207-1.112.11-.28.237-.48.447-.69.209-.208.408-.339.689-.446.211-.08.527-.18 1.112-.207.632-.03.82-.035 2.419-.035Zm0-1.078c-1.626 0-1.83.007-2.47.036-.636.028-1.07.13-1.451.278a2.918 2.918 0 0 0-1.06.691 2.97 2.97 0 0 0-.691 1.06c-.148.38-.25.815-.278 1.454-.029.637-.036.841-.036 2.467 0 1.625.007 1.83.036 2.469.028.636.13 1.071.278 1.454.152.394.358.727.691 1.06a2.97 2.97 0 0 0 1.06.691c.38.147.815.25 1.454.278.64.029.841.036 2.47.036 1.627 0 1.829-.007 2.468-.036.637-.028 1.072-.13 1.454-.278a2.918 2.918 0 0 0 1.06-.691c.333-.333.537-.668.691-1.06.148-.38.25-.815.279-1.454.028-.64.035-.842.035-2.47 0-1.627-.007-1.829-.035-2.468-.029-.637-.131-1.072-.278-1.454a2.918 2.918 0 0 0-.692-1.06 2.969 2.969 0 0 0-1.06-.692C9.533.166 9.098.063 8.46.035 7.817.01 7.613.002 5.988.002Z"/><path d="M5.988 2.913a3.075 3.075 0 1 0 0 6.15 3.075 3.075 0 0 0 0-6.15Zm0 5.07a1.996 1.996 0 1 1 0-3.99 1.996 1.996 0 0 1 0 3.99ZM9.184 3.51a.718.718 0 1 0 0-1.436.718.718 0 0 0 0 1.435Z"/></g><defs><clipPath id="fa"><path d="M0 0h12v12H0z"/></clipPath></defs></symbol><symbol viewBox="0 0 12 12" id="telegram" xmlns="http://www.w3.org/2000/svg"><rect width="12" height="12" rx="3"/><path d="M10.332 1.859 1.467 5.277c-.605.243-.601.58-.11.731l2.275.71 5.266-3.322c.25-.152.477-.07.29.096L4.92 7.342 4.764 9.69c.23 0 .332-.106.46-.23L6.33 8.384l2.3 1.698c.424.234.728.114.834-.392l1.51-7.114c.154-.62-.237-.9-.642-.717Z"/></symbol><symbol viewBox="0 0 16 16" id="viber" xmlns="http://www.w3.org/2000/svg"><path d="M8 1.335c-1.071.013-3.374.19-4.662 1.37-.958.948-1.292 2.35-1.331 4.084-.033 1.728-.072 4.973 3.058 5.856v1.346s-.02.538.337.648c.438.14.688-.275 1.105-.72l.778-.879c2.142.178 3.782-.232 3.97-.293.435-.139 2.883-.451 3.283-3.696.41-3.351-.2-5.463-1.301-6.418h-.007c-.332-.306-1.668-1.279-4.652-1.29 0 0-.222-.014-.578-.008Zm.037.942a7.02 7.02 0 0 1 .488.011c2.527.007 3.732.767 4.017 1.023.927.794 1.405 2.697 1.055 5.495-.332 2.713-2.317 2.885-2.685 3.002-.156.05-1.6.406-3.42.289 0 0-1.356 1.634-1.78 2.055-.067.074-.146.095-.196.085-.071-.018-.093-.107-.089-.229l.013-2.233c-2.655-.733-2.498-3.5-2.47-4.946.033-1.446.304-2.628 1.113-3.43 1.088-.982 3.043-1.115 3.953-1.122Zm.2 1.446a.166.166 0 1 0 0 .332 3.136 3.136 0 0 1 2.242.883c.606.588.9 1.378.912 2.411 0 .092.074.167.167.167V7.51a.167.167 0 0 0 .168-.165 3.588 3.588 0 0 0-1.009-2.646c-.66-.645-1.496-.977-2.48-.977Zm-2.198.382a.523.523 0 0 0-.342.067H5.69a2.61 2.61 0 0 0-.637.523 1.003 1.003 0 0 0-.256.525.71.71 0 0 0 .026.302l.01.006c.172.504.396.988.67 1.444a8.48 8.48 0 0 0 1.29 1.762l.015.022.024.017.015.018.017.015c.532.505 1.127.94 1.769 1.295.734.4 1.18.588 1.447.667v.004c.078.024.15.034.221.034.228-.016.444-.109.613-.262a2.53 2.53 0 0 0 .517-.638v-.004c.128-.241.085-.469-.1-.623-.37-.323-.77-.61-1.195-.857-.285-.155-.574-.061-.69.095l-.25.315c-.129.156-.361.134-.361.134l-.007.004C7.093 8.527 6.63 6.772 6.63 6.772s-.022-.239.139-.36l.312-.252c.15-.122.254-.41.094-.695a7.498 7.498 0 0 0-.856-1.194.475.475 0 0 0-.28-.167Zm2.486.495c-.221 0-.221.334.003.334A2.098 2.098 0 0 1 10 5.572 1.94 1.94 0 0 1 10.5 7a.168.168 0 0 0 .167.165l.007.009a.169.169 0 0 0 .167-.167c.015-.662-.191-1.218-.595-1.663C9.84 4.9 9.273 4.65 8.549 4.6h-.024Zm.274.898c-.228-.006-.236.335-.01.341.55.029.816.306.851.877a.166.166 0 0 0 .165.163h.007a.168.168 0 0 0 .16-.178c-.039-.744-.445-1.164-1.166-1.202H8.8Z"/></symbol><symbol viewBox="0 0 12 12" id="vk" xmlns="http://www.w3.org/2000/svg"><rect width="12" height="12" rx="3"/><path d="M11.304 8.496c-.03-.048-.209-.438-1.073-1.24-.905-.84-.783-.704.306-2.156.664-.884.93-1.424.846-1.655-.079-.22-.567-.162-.567-.162l-1.622.01s-.12-.017-.21.036c-.088.053-.144.175-.144.175s-.257.684-.6 1.266c-.723 1.228-1.012 1.293-1.13 1.216-.275-.177-.206-.714-.206-1.094 0-1.19.18-1.687-.352-1.815-.177-.043-.306-.07-.758-.076-.58-.006-1.07.002-1.347.138-.185.09-.328.292-.24.304.107.014.35.065.479.24.166.227.16.736.16.736s.096 1.4-.223 1.575c-.22.12-.52-.124-1.165-1.239-.33-.57-.58-1.201-.58-1.201s-.048-.118-.133-.18c-.104-.077-.25-.101-.25-.101l-1.543.01s-.232.006-.317.107c-.075.09-.006.274-.006.274s1.208 2.827 2.576 4.252c1.255 1.306 2.68 1.22 2.68 1.22h.645s.195-.021.294-.129c.092-.098.089-.283.089-.283s-.013-.866.389-.994c.396-.125.905.837 1.445 1.208.407.28.717.219.717.219l1.443-.02s.755-.047.397-.64Z"/></symbol><symbol viewBox="0 0 16 16" id="whatsapp" xmlns="http://www.w3.org/2000/svg"><path fill-rule="evenodd" clip-rule="evenodd" d="M12.269 3.755A5.947 5.947 0 0 0 8.035 2 5.994 5.994 0 0 0 2.05 7.985a5.98 5.98 0 0 0 .799 2.992L2 14.077l3.173-.832c.877.477 1.86.728 2.86.728h.002a5.993 5.993 0 0 0 5.533-8.276 5.953 5.953 0 0 0-1.3-1.942Zm-4.234 9.208h-.002c-.89 0-1.765-.24-2.532-.694l-.181-.108-1.883.494.502-1.835-.118-.188a4.965 4.965 0 0 1-.76-2.647 4.982 4.982 0 0 1 6.88-4.597c.604.25 1.152.618 1.613 1.081a4.946 4.946 0 0 1 1.455 3.52 4.982 4.982 0 0 1-4.974 4.974Zm2.729-3.726c-.15-.075-.885-.436-1.022-.486-.137-.05-.236-.075-.336.074-.1.15-.387.486-.474.586-.087.1-.175.112-.324.038-.15-.075-.631-.233-1.203-.742a4.505 4.505 0 0 1-.832-1.036c-.087-.15-.009-.231.066-.306.068-.066.15-.174.224-.262.075-.087.1-.149.15-.249.05-.1.025-.187-.013-.262-.037-.075-.337-.811-.461-1.11-.121-.29-.244-.252-.336-.256a6.418 6.418 0 0 0-.286-.005.55.55 0 0 0-.4.186c-.137.15-.523.512-.523 1.248s.536 1.447.61 1.547c.075.1 1.055 1.61 2.555 2.258.358.154.636.246.853.315.358.114.684.098.942.06.287-.043.885-.362 1.01-.711.124-.35.124-.649.087-.711-.038-.063-.138-.101-.287-.176Z"/></symbol><symbol viewBox="0 0 12 12" id="youtube" xmlns="http://www.w3.org/2000/svg"><path d="M11.748 3.03C12 3.99 12 5.994 12 5.994s0 2.004-.252 2.964c-.132.528-.54.948-1.056 1.092-.936.264-4.692.264-4.692.264s-3.756 0-4.692-.264A1.518 1.518 0 0 1 .252 8.958C0 7.998 0 5.994 0 5.994S0 3.99.252 3.03c.132-.528.54-.948 1.056-1.092C2.244 1.686 6 1.686 6 1.686s3.756 0 4.692.252c.516.144.924.564 1.056 1.092ZM4.872 8.058l3-1.872-3-1.872v3.744Z"/></symbol></svg>