<svg width="12" height="12" viewBox="0 0 12 12" fill="none" xmlns="http://www.w3.org/2000/svg">
<rect width="12" height="12" rx="3" fill="black"/>
<path d="M11.3037 8.49632C11.2747 8.44771 11.0951 8.05754 10.2311 7.25558C9.32649 6.41581 9.448 6.55217 10.5375 5.10014C11.2011 4.21582 11.4664 3.67578 11.3834 3.44492C11.3044 3.22485 10.8163 3.2829 10.8163 3.2829L9.19351 3.29235C9.19351 3.29235 9.07335 3.27615 8.98357 3.32948C8.89649 3.38214 8.84046 3.50364 8.84046 3.50364C8.84046 3.50364 8.58326 4.18815 8.24034 4.77004C7.51736 5.99796 7.22776 6.06276 7.10963 5.98648C6.83488 5.80894 6.90374 5.27228 6.90374 4.89155C6.90374 3.70143 7.08398 3.20527 6.55204 3.07701C6.37518 3.03448 6.24557 3.00613 5.79396 3.00141C5.21477 2.99533 4.724 3.00343 4.44656 3.13912C4.2616 3.22957 4.11916 3.43141 4.20624 3.44289C4.31357 3.45707 4.55659 3.50837 4.68553 3.68388C4.85226 3.91003 4.84619 4.41901 4.84619 4.41901C4.84619 4.41901 4.94205 5.81974 4.62275 5.99391C4.40336 6.11339 4.10296 5.8697 3.45829 4.75519C3.12819 4.18477 2.87842 3.5536 2.87842 3.5536C2.87842 3.5536 2.83049 3.43614 2.74476 3.37336C2.6408 3.29708 2.49499 3.27278 2.49499 3.27278L0.951827 3.28223C0.951827 3.28223 0.720285 3.28898 0.635229 3.38956C0.559623 3.47934 0.629153 3.66431 0.629153 3.66431C0.629153 3.66431 1.83749 6.49074 3.20514 7.91577C4.46006 9.222 5.88441 9.13627 5.88441 9.13627H6.52976C6.52976 9.13627 6.72485 9.11466 6.82408 9.00733C6.91589 8.90877 6.91252 8.72381 6.91252 8.72381C6.91252 8.72381 6.89969 7.85772 7.30202 7.73014C7.69827 7.60458 8.20726 8.5672 8.74662 8.9378C9.15436 9.21795 9.4642 9.15652 9.4642 9.15652L10.9068 9.13627C10.9068 9.13627 11.6615 9.08969 11.3037 8.49632Z" fill="white"/>
</svg>
