<svg width="12" height="12" viewBox="0 0 12 12" fill="none" xmlns="http://www.w3.org/2000/svg">
<path d="M11.748 3.03004C12 3.99004 12 5.99404 12 5.99404C12 5.99404 12 7.99804 11.748 8.95804C11.616 9.48604 11.208 9.90604 10.692 10.05C9.756 10.314 6 10.314 6 10.314C6 10.314 2.244 10.314 1.308 10.05C0.792 9.90604 0.384 9.48604 0.252 8.95804C0 7.99804 0 5.99404 0 5.99404C0 5.99404 0 3.99004 0.252 3.03004C0.384 2.50204 0.792 2.08204 1.308 1.93804C2.244 1.68604 6 1.68604 6 1.68604C6 1.68604 9.756 1.68604 10.692 1.93804C11.208 2.08204 11.616 2.50204 11.748 3.03004ZM4.872 8.05803L7.872 6.18604L4.872 4.31404V8.05803Z" fill="black"/>
</svg>
