<svg width="34" height="34" viewBox="0 0 34 34" fill="none" xmlns="http://www.w3.org/2000/svg">
<path d="M32.0012 26.0749C30.7796 24.8442 27.8211 23.0481 26.3857 22.3243C24.5164 21.3828 24.3625 21.3059 22.8933 22.3974C21.9133 23.1258 21.2617 23.7766 20.1148 23.5319C18.9678 23.2873 16.4754 21.9082 14.2931 19.7329C12.1107 17.5576 10.6514 14.9931 10.4061 13.8501C10.1607 12.707 10.8222 12.0632 11.5438 11.0809C12.5607 9.69639 12.4838 9.46563 11.6145 7.59648C10.9368 6.1427 9.08833 3.21205 7.85292 1.99672C6.53134 0.691391 6.53135 0.92215 5.67979 1.27598C4.98652 1.56765 4.32141 1.92219 3.69281 2.33517C2.46201 3.15282 1.77892 3.83202 1.30122 4.85275C0.823513 5.87348 0.608893 8.26645 3.07588 12.7478C5.54286 17.2291 7.27367 19.5206 10.8561 23.0927C14.4385 26.6649 17.1931 28.5856 21.2202 30.8439C26.2018 33.6338 28.1126 33.09 29.1365 32.6131C30.1604 32.1362 30.8427 31.4593 31.662 30.2286C32.076 29.6011 32.4314 28.9368 32.7235 28.2441C33.0781 27.3956 33.3089 27.3956 32.0012 26.0749Z" stroke="#CDA274" stroke-width="2" stroke-miterlimit="10"/>
</svg>
