<svg width="12" height="12" viewBox="0 0 12 12" fill="none" xmlns="http://www.w3.org/2000/svg">
<g clip-path="url(#clip0_125_57)">
<path d="M12 6C12 2.68594 9.31406 0 6 0C2.68594 0 0 2.68594 0 6C0 8.99531 2.19375 11.4773 5.0625 11.9273V7.73438H3.53906V6H5.0625V4.67813C5.0625 3.17461 5.95781 2.34375 7.32891 2.34375C7.98516 2.34375 8.67188 2.46094 8.67188 2.46094V3.9375H7.91484C7.16953 3.9375 6.9375 4.40039 6.9375 4.875V6H8.60156L8.33555 7.73438H6.9375V11.9273C9.80625 11.4773 12 8.99531 12 6Z" fill="black"/>
</g>
<defs>
<clipPath id="clip0_125_57">
<rect width="12" height="12" fill="white"/>
</clipPath>
</defs>
</svg>
