<svg width="12" height="12" viewBox="0 0 12 12" fill="none" xmlns="http://www.w3.org/2000/svg">
<g clip-path="url(#clip0_42_774)">
<path d="M5.98769 1.08077C7.5869 1.08077 7.77462 1.08789 8.4067 1.11641C8.99126 1.14255 9.3073 1.23997 9.51878 1.32314C9.79918 1.43245 9.99878 1.56077 10.2079 1.76987C10.417 1.97898 10.5477 2.17859 10.6546 2.45898C10.7354 2.67047 10.8352 2.98651 10.8614 3.57106C10.8899 4.20314 10.897 4.39086 10.897 5.99007C10.897 7.58928 10.8899 7.777 10.8614 8.40908C10.8352 8.99364 10.7378 9.30968 10.6546 9.52116C10.5453 9.80156 10.417 10.0012 10.2079 10.2103C9.99878 10.4194 9.79918 10.5501 9.51878 10.657C9.3073 10.7378 8.99126 10.8376 8.4067 10.8637C7.77462 10.8923 7.5869 10.8994 5.98769 10.8994C4.38849 10.8994 4.20076 10.8923 3.56869 10.8637C2.98413 10.8376 2.66809 10.7402 2.45661 10.657C2.17621 10.5477 1.97661 10.4194 1.7675 10.2103C1.55839 10.0012 1.4277 9.80156 1.32076 9.52116C1.23997 9.30968 1.14017 8.99364 1.11403 8.40908C1.08552 7.777 1.07839 7.58928 1.07839 5.99007C1.07839 4.39086 1.08552 4.20314 1.11403 3.57106C1.14017 2.98651 1.2376 2.67047 1.32076 2.45898C1.43007 2.17859 1.55839 1.97898 1.7675 1.76987C1.97661 1.56077 2.17621 1.43007 2.45661 1.32314C2.66809 1.24235 2.98413 1.14255 3.56869 1.11641C4.20076 1.08552 4.38849 1.08077 5.98769 1.08077ZM5.98769 0.00195312C4.36235 0.00195312 4.15799 0.00908184 3.51878 0.0375967C2.88195 0.0661115 2.4471 0.16829 2.0669 0.315617C1.67245 0.467696 1.33977 0.674428 1.0071 1.0071C0.674428 1.33977 0.470072 1.67482 0.315616 2.0669C0.16829 2.4471 0.0661115 2.88195 0.0375967 3.52116C0.00908184 4.15799 0.00195312 4.36235 0.00195312 5.9877C0.00195312 7.61304 0.00908184 7.8174 0.0375967 8.45661C0.0661115 9.09344 0.16829 9.52829 0.315616 9.91086C0.467696 10.3053 0.674428 10.638 1.0071 10.9707C1.33977 11.3033 1.67482 11.5077 2.0669 11.6622C2.4471 11.8095 2.88195 11.9117 3.52116 11.9402C4.16037 11.9687 4.36235 11.9758 5.99007 11.9758C7.61779 11.9758 7.81977 11.9687 8.45898 11.9402C9.09581 11.9117 9.53066 11.8095 9.91324 11.6622C10.3077 11.5101 10.6404 11.3033 10.973 10.9707C11.3057 10.638 11.5101 10.3029 11.6645 9.91086C11.8119 9.53067 11.914 9.09581 11.9425 8.45661C11.9711 7.8174 11.9782 7.61542 11.9782 5.9877C11.9782 4.35997 11.9711 4.15799 11.9425 3.51878C11.914 2.88195 11.8119 2.4471 11.6645 2.06453C11.5124 1.67007 11.3057 1.3374 10.973 1.00473C10.6404 0.672052 10.3053 0.467696 9.91324 0.31324C9.53304 0.165914 9.09819 0.0637353 8.45898 0.0352205C7.8174 0.00908184 7.61304 0.00195312 5.98769 0.00195312Z" fill="black"/>
<path d="M5.98769 2.91289C4.29105 2.91289 2.91284 4.28873 2.91284 5.98774C2.91284 7.68675 4.29105 9.06259 5.98769 9.06259C7.68432 9.06259 9.06254 7.68438 9.06254 5.98774C9.06254 4.29111 7.68432 2.91289 5.98769 2.91289ZM5.98769 7.98378C4.88511 7.98378 3.99165 7.09032 3.99165 5.98774C3.99165 4.88517 4.88511 3.9917 5.98769 3.9917C7.09026 3.9917 7.98373 4.88517 7.98373 5.98774C7.98373 7.09032 7.09026 7.98378 5.98769 7.98378Z" fill="black"/>
<path d="M9.18373 3.50937C9.58007 3.50937 9.90136 3.18808 9.90136 2.79174C9.90136 2.39541 9.58007 2.07412 9.18373 2.07412C8.7874 2.07412 8.46611 2.39541 8.46611 2.79174C8.46611 3.18808 8.7874 3.50937 9.18373 3.50937Z" fill="black"/>
</g>
<defs>
<clipPath id="clip0_42_774">
<rect width="12" height="12" fill="white"/>
</clipPath>
</defs>
</svg>
