<svg width="127" height="70" viewBox="0 0 127 70" fill="none" xmlns="http://www.w3.org/2000/svg">
<path d="M10.4609 9.98633H26.4238C29.5892 9.98633 31.9811 10.6237 33.5996 11.8984C35.2324 13.1732 36.0488 14.9421 36.0488 17.2051C36.0488 19.11 35.3184 20.6426 33.8574 21.8027C32.3965 22.9629 30.2051 23.7507 27.2832 24.166C30.9642 24.5671 33.5352 25.4909 34.9961 26.9375C36.4714 28.3698 37.209 30.0456 37.209 31.9648C37.209 34.0846 36.3568 35.9538 34.6523 37.5723C32.9479 39.1908 29.9974 40 25.8008 40H10.4609V38.3457H11.041C11.6855 38.3457 12.3587 38.2025 13.0605 37.916C13.7767 37.6296 14.2995 37.1855 14.6289 36.584C14.9583 35.9824 15.123 34.8724 15.123 33.2539V16.7324C15.123 15.1426 14.9583 14.0397 14.6289 13.4238C14.3138 12.7936 13.7767 12.3424 13.0176 12.0703C12.2585 11.7839 11.5996 11.6406 11.041 11.6406H10.4609V9.98633ZM19.7422 23.2422H22.8789C25.8151 23.2422 27.849 22.8411 28.9805 22.0391C30.112 21.2227 30.6777 19.862 30.6777 17.957C30.6777 16.5247 30.291 15.3001 29.5176 14.2832C28.7441 13.252 27.7487 12.5573 26.5312 12.1992C25.3281 11.8411 23.7454 11.6621 21.7832 11.6621H19.7422V23.2422ZM19.7422 25.2617V32.9102C19.7422 34.3138 19.8997 35.388 20.2148 36.1328C20.5299 36.8633 21.0026 37.3932 21.6328 37.7227C22.2773 38.0521 23.2656 38.2168 24.5977 38.2168H26.123C27.7272 38.2168 29.0736 37.7012 30.1621 36.6699C31.265 35.6387 31.8164 34.2565 31.8164 32.5234C31.8164 31.0482 31.4512 29.709 30.7207 28.5059C29.9902 27.3027 29.0306 26.4648 27.8418 25.9922C26.6673 25.5052 25.0775 25.2617 23.0723 25.2617H19.7422ZM45.9531 9.98633H57.9844V11.6406C55.5924 11.7552 54.3965 12.4355 54.3965 13.6816C54.3965 14.3262 54.8333 15.5651 55.707 17.3984L61.293 29.0645C61.5078 29.5371 62.1667 31.1341 63.2695 33.8555C63.4844 33.2539 64.1647 31.5996 65.3105 28.8926L68.4688 21.3516C69.7865 18.2292 70.4453 16.0736 70.4453 14.8848C70.4453 12.9941 69.1849 11.9128 66.6641 11.6406V9.98633H76.9766V11.6406C75.9167 11.9987 75.1289 12.3997 74.6133 12.8438C74.0977 13.2878 73.7038 13.8177 73.4316 14.4336C73.1595 15.0495 72.1354 17.6204 70.3594 22.1465L65.2461 34.0273C64.3294 36.1758 63.6562 38.3385 63.2266 40.5156H60.8848C60.5267 38.9688 59.9108 37.25 59.0371 35.3594L49.8848 15.5293C49.0684 13.7676 48.4382 12.679 47.9941 12.2637C47.5645 11.8483 46.8841 11.6406 45.9531 11.6406V9.98633ZM91.7148 38.4316L91.5 30.8477H93.6055C94.4648 35.875 97.1576 38.3887 101.684 38.3887C103.474 38.3887 105.007 37.9089 106.281 36.9492C107.556 35.9896 108.193 34.8366 108.193 33.4902C108.193 32.4303 107.742 31.4206 106.84 30.4609C105.923 29.5013 103.997 28.1693 101.061 26.4648C97.3652 24.3164 94.9876 22.5977 93.9277 21.3086C92.8535 20.0195 92.3164 18.5872 92.3164 17.0117C92.3164 14.7917 93.2546 12.9798 95.1309 11.5762C97.0072 10.1582 99.4779 9.44922 102.543 9.44922C105.565 9.44922 108.623 10.2943 111.717 11.9844V18.4297H109.826C109.597 16.0091 108.759 14.2116 107.312 13.0371C105.88 11.8626 104.176 11.2754 102.199 11.2754C100.796 11.2754 99.528 11.6549 98.3965 12.4141C97.265 13.1589 96.6992 14.1686 96.6992 15.4434C96.6992 16.1738 96.8854 16.8398 97.2578 17.4414C97.6445 18.0286 98.2031 18.6087 98.9336 19.1816C99.6784 19.7402 101.512 20.8574 104.434 22.5332C107.871 24.4811 110.134 26.1641 111.223 27.582C112.311 29 112.855 30.5326 112.855 32.1797C112.855 34.7148 111.796 36.7487 109.676 38.2812C107.556 39.7995 104.949 40.5586 101.855 40.5586C100.309 40.5586 98.5039 40.3438 96.4414 39.9141C94.3932 39.4844 92.8177 38.9902 91.7148 38.4316Z" fill="black"/>
<path d="M3.591 53.795V67H1.425V53.795H3.591ZM21.2838 67H19.1178L12.6008 57.139V67H10.4348V53.776H12.6008L19.1178 63.618V53.776H21.2838V67ZM36.6591 53.795V55.562H33.1441V67H30.9781V55.562H27.4441V53.795H36.6591ZM45.0187 55.543V59.419H49.5787V61.186H45.0187V65.233H50.1487V67H42.8527V53.776H50.1487V55.543H45.0187ZM63.6756 67L60.6356 61.718H58.9826V67H56.8166V53.795H61.3766C62.3899 53.795 63.2449 53.9723 63.9416 54.327C64.6509 54.6817 65.1766 55.1567 65.5186 55.752C65.8733 56.3473 66.0506 57.0123 66.0506 57.747C66.0506 58.6083 65.7973 59.3937 65.2906 60.103C64.7966 60.7997 64.0303 61.2747 62.9916 61.528L66.2596 67H63.6756ZM58.9826 59.989H61.3766C62.1873 59.989 62.7953 59.7863 63.2006 59.381C63.6186 58.9757 63.8276 58.431 63.8276 57.747C63.8276 57.063 63.6249 56.531 63.2196 56.151C62.8143 55.7583 62.1999 55.562 61.3766 55.562H58.9826V59.989ZM74.9875 53.795V67H72.8215V53.795H74.9875ZM87.8543 67.133C86.6256 67.133 85.4919 66.848 84.4533 66.278C83.4273 65.6953 82.6103 64.891 82.0023 63.865C81.4069 62.8263 81.1093 61.661 81.1093 60.369C81.1093 59.077 81.4069 57.918 82.0023 56.892C82.6103 55.866 83.4273 55.068 84.4533 54.498C85.4919 53.9153 86.6256 53.624 87.8543 53.624C89.0956 53.624 90.2293 53.9153 91.2553 54.498C92.2939 55.068 93.1109 55.866 93.7063 56.892C94.3016 57.918 94.5993 59.077 94.5993 60.369C94.5993 61.661 94.3016 62.8263 93.7063 63.865C93.1109 64.891 92.2939 65.6953 91.2553 66.278C90.2293 66.848 89.0956 67.133 87.8543 67.133ZM87.8543 65.252C88.7283 65.252 89.5073 65.0557 90.1913 64.663C90.8753 64.2577 91.4073 63.6877 91.7873 62.953C92.1799 62.2057 92.3763 61.3443 92.3763 60.369C92.3763 59.3937 92.1799 58.5387 91.7873 57.804C91.4073 57.0693 90.8753 56.5057 90.1913 56.113C89.5073 55.7203 88.7283 55.524 87.8543 55.524C86.9803 55.524 86.2013 55.7203 85.5173 56.113C84.8333 56.5057 84.2949 57.0693 83.9023 57.804C83.5223 58.5387 83.3323 59.3937 83.3323 60.369C83.3323 61.3443 83.5223 62.2057 83.9023 62.953C84.2949 63.6877 84.8333 64.2577 85.5173 64.663C86.2013 65.0557 86.9803 65.252 87.8543 65.252ZM107.59 67L104.55 61.718H102.897V67H100.731V53.795H105.291C106.304 53.795 107.159 53.9723 107.856 54.327C108.565 54.6817 109.091 55.1567 109.433 55.752C109.787 56.3473 109.965 57.0123 109.965 57.747C109.965 58.6083 109.711 59.3937 109.205 60.103C108.711 60.7997 107.944 61.2747 106.906 61.528L110.174 67H107.59ZM102.897 59.989H105.291C106.101 59.989 106.709 59.7863 107.115 59.381C107.533 58.9757 107.742 58.431 107.742 57.747C107.742 57.063 107.539 56.531 107.134 56.151C106.728 55.7583 106.114 55.562 105.291 55.562H102.897V59.989ZM121.087 67.133C120.2 67.133 119.402 66.981 118.693 66.677C117.983 66.3603 117.426 65.917 117.021 65.347C116.615 64.777 116.413 64.112 116.413 63.352H118.731C118.781 63.922 119.003 64.3907 119.396 64.758C119.801 65.1253 120.365 65.309 121.087 65.309C121.834 65.309 122.417 65.1317 122.835 64.777C123.253 64.4097 123.462 63.941 123.462 63.371C123.462 62.9277 123.329 62.5667 123.063 62.288C122.809 62.0093 122.486 61.794 122.094 61.642C121.714 61.49 121.182 61.3253 120.498 61.148C119.636 60.92 118.933 60.692 118.389 60.464C117.857 60.2233 117.401 59.856 117.021 59.362C116.641 58.868 116.451 58.2093 116.451 57.386C116.451 56.626 116.641 55.961 117.021 55.391C117.401 54.821 117.933 54.384 118.617 54.08C119.301 53.776 120.092 53.624 120.992 53.624C122.271 53.624 123.316 53.947 124.127 54.593C124.95 55.2263 125.406 56.1003 125.495 57.215H123.101C123.063 56.7337 122.835 56.322 122.417 55.98C121.999 55.638 121.448 55.467 120.764 55.467C120.143 55.467 119.636 55.6253 119.244 55.942C118.851 56.2587 118.655 56.7147 118.655 57.31C118.655 57.7153 118.775 58.051 119.016 58.317C119.269 58.5703 119.586 58.773 119.966 58.925C120.346 59.077 120.865 59.2417 121.524 59.419C122.398 59.6597 123.107 59.9003 123.652 60.141C124.209 60.3817 124.678 60.7553 125.058 61.262C125.45 61.756 125.647 62.421 125.647 63.257C125.647 63.9283 125.463 64.5617 125.096 65.157C124.741 65.7523 124.215 66.2337 123.519 66.601C122.835 66.9557 122.024 67.133 121.087 67.133Z" fill="#CDA274"/>
</svg>
